<?xml version="1.0" encoding="UTF-8"?>
<svg width="45px" height="45px" viewBox="0 0 45 45" version="1.1" xmlns="http://www.w3.org/2000/svg" xmlns:xlink="http://www.w3.org/1999/xlink">
    <!-- Generator: Sketch 49.3 (51167) - http://www.bohemiancoding.com/sketch -->
    <title>Elements/Nav/Search-active@3x</title>
    <desc>Created with Sketch.</desc>
    <defs></defs>
    <g id="Elements/Nav/Search-active" stroke="none" stroke-width="1" fill="none" fill-rule="evenodd">
        <circle id="Oval" fill="#3C3C3C" cx="22" cy="23" r="20"></circle>
        <path d="M30.6865661,30.2260627 L25.2612667,24.7997616 C26.095697,23.7041336 26.5652518,22.295469 26.5652518,20.7821251 C26.5652518,17.0256862 23.5395656,14 19.7831268,14 C16.026688,14 13,17.026688 13,20.7831268 C13,24.5395656 16.0256862,27.5652518 19.7821251,27.5652518 C21.295469,27.5652518 22.651293,27.095697 23.7997616,26.2612667 L29.2260627,31.6875678 C29.4344273,31.8959325 29.6956175,32.0006044 29.9568152,32.0006044 C30.2180129,32.0006044 30.4782089,31.8959325 30.6875678,31.6875678 C31.1043071,31.2698518 31.1043071,30.6437787 30.6865886,30.2260877 L30.6865661,30.2260627 Z M19.7831268,25.4786753 C17.1741548,25.4786753 15.0875783,23.3920988 15.0875783,20.7831268 C15.0875783,18.1741548 17.1741548,16.0875783 19.7831268,16.0875783 C22.3920988,16.0875783 24.4786753,18.1741548 24.4786753,20.7831268 C24.4786753,23.391097 22.3911221,25.4786753 19.7831268,25.4786753 Z" id="Page-1" fill="#FCE86C"></path>
    </g>
</svg>