<?xml version="1.0" encoding="UTF-8"?>
<svg width="45px" height="45px" viewBox="0 0 45 45" version="1.1" xmlns="http://www.w3.org/2000/svg" xmlns:xlink="http://www.w3.org/1999/xlink">
    <!-- Generator: Sketch 49.3 (51167) - http://www.bohemiancoding.com/sketch -->
    <title>Elements/Nav/Library-active@3x</title>
    <desc>Created with Sketch.</desc>
    <defs></defs>
    <g id="Elements/Nav/Library-active" stroke="none" stroke-width="1" fill="none" fill-rule="evenodd">
        <circle id="Oval" fill="#3C3C3C" cx="22" cy="23" r="20"></circle>
        <path d="M34.6965109,21.0027 L34.6965351,21.0028408 C35.2069989,22.5857408 35.0694989,24.2727668 34.3115351,25.7517608 C33.5527551,27.2306448 32.2627631,28.3263548 30.6806551,28.8368208 C30.0730811,29.0318904 29.4345751,29.1315768 28.7814391,29.1315768 C28.7668311,29.1315768 28.7530811,29.1307188 28.7384709,29.1307188 L28.7384709,24.0990988 C28.8751129,24.1042556 29.0117505,24.093942 29.1389369,24.052692 C29.7679939,23.849016 30.1143223,23.172692 29.9123689,22.543624 C29.7491069,22.037448 29.2738629,21.70659 28.7384709,21.72034 L28.7384709,16.6937413 C31.4515109,16.68432 33.8629089,18.41176 34.6965109,21.0027 Z M27.6514487,15 C27.7803555,15 27.8851987,15.1039852 27.8851987,15.23375 L27.8860589,30.58733 C27.8860589,30.7162368 27.7803577,30.82108 27.6514509,30.82108 L13.23375,30.82108 C13.1048432,30.82108 13,30.7162368 13,30.58733 L13,15.23375 C13,15.1039852 13.1048432,15 13.23375,15 L27.6514509,15 Z M18.8195509,25.67 C19.1246249,25.67 19.3231441,25.7628114 19.3558009,25.8504682 C19.4108009,26.0008602 19.1074429,26.4408602 18.4646249,26.6780422 C18.2351869,26.7622604 18.0005701,26.807807 17.7857269,26.807807 C17.4797949,26.807807 17.2812735,26.7141332 17.2494769,26.6281968 C17.1936189,26.4769468 17.4978349,26.0369468 18.1397949,25.7997648 C18.3700909,25.7146864 18.6047077,25.67 18.8195509,25.67 Z M23.8375309,21.93176 L23.8375903,21.9319866 C24.0850815,21.8546346 24.2217235,21.5925266 24.1452383,21.3458846 C23.0280783,17.7665726 19.8113351,18.087128 19.7786783,18.0914246 C19.5423543,18.1180666 19.3636043,18.3183106 19.3636043,18.5563506 L19.3636043,24.8039106 C19.1968663,24.7592242 19.0164069,24.7334424 18.8196103,24.7334424 C18.4956163,24.7334424 18.1492923,24.798756 17.8158603,24.9216458 C16.7167183,25.3272818 16.0945363,26.1995378 16.3712523,26.9514978 C16.5534343,27.4473558 17.0828203,27.7429918 17.7857863,27.7429918 C18.1097803,27.7429918 18.4561043,27.6785384 18.7886783,27.5556486 C19.7520363,27.1998646 20.3484519,26.4865806 20.2960303,25.8102566 C20.2960303,25.8033816 20.2994689,25.7982248 20.2994689,25.79221 L20.2994689,19.02457 C21.0454889,19.08551 22.5819689,19.47997 23.2514289,21.62497 C23.3287809,21.8707452 23.5917469,22.0082452 23.8375309,21.93176 Z" id="Combined-Shape" fill="#FCE86C"></path>
    </g>
</svg>